<?xml version="1.0" encoding="iso-8859-1"?>
<!-- Generator: Adobe Illustrator 19.0.0, SVG Export Plug-In . SVG Version: 6.00 Build 0)  -->
<svg version="1.1" id="Layer_1" xmlns="http://www.w3.org/2000/svg" xmlns:xlink="http://www.w3.org/1999/xlink" x="0px" y="0px"
	 viewBox="0 0 512 512" style="enable-background:new 0 0 512 512;" xml:space="preserve">
<circle style="fill:#88C5CC;" cx="256" cy="256" r="256"/>
<path style="fill:#80B9BF;" d="M491.156,357.252c-0.172-0.54-0.348-1.084-0.64-1.584c-0.176-0.712-0.452-1.404-0.828-2.048
	c-0.176-0.716-0.452-1.404-0.828-2.052c-0.176-0.712-0.452-1.4-0.828-2.048c-0.176-0.712-0.452-1.4-0.828-2.048
	c-0.176-0.712-0.452-1.4-0.828-2.048c-0.176-0.712-0.452-1.404-0.828-2.048c-0.176-0.712-0.452-1.396-0.82-2.044
	c-0.18-0.716-0.46-1.412-0.836-2.06c-0.172-0.712-0.452-1.4-0.828-2.048c-0.172-0.716-0.452-1.404-0.828-2.056
	c-0.18-0.712-0.452-1.4-0.828-2.048c-0.18-0.712-0.452-1.4-0.828-2.048c-0.18-0.712-0.452-1.404-0.828-2.048
	c-0.18-0.712-0.452-1.396-0.828-2.044c-0.172-0.716-0.448-1.412-0.828-2.06c-0.18-0.712-0.452-1.4-0.828-2.048
	c-0.18-0.716-0.452-1.404-0.828-2.052c-0.18-0.712-0.452-1.4-0.828-2.048c-0.18-0.716-0.452-1.396-0.828-2.044
	c-0.18-0.72-0.456-1.408-0.836-2.06c-0.172-0.708-0.448-1.392-0.82-2.04c-0.18-0.716-0.456-1.412-0.836-2.06
	c-0.172-0.712-0.448-1.404-0.824-2.048c-0.176-0.716-0.452-1.404-0.828-2.052c-0.176-0.712-0.452-1.404-0.828-2.048
	c-0.176-0.716-0.452-1.404-0.828-2.052c-0.176-0.712-0.452-1.4-0.828-2.048c-0.176-0.708-0.452-1.392-0.824-2.04
	c-0.176-0.712-0.452-1.408-0.828-2.056c-0.176-0.712-0.456-1.404-0.832-2.056c-0.176-0.712-0.448-1.4-0.828-2.048
	c-0.176-0.712-0.448-1.4-0.828-2.048c-0.176-0.712-0.448-1.4-0.828-2.048c-0.176-0.716-0.448-1.404-0.828-2.052
	c-0.176-0.712-0.448-1.4-0.828-2.048c-0.176-0.708-0.448-1.396-0.824-2.04c-0.176-0.716-0.452-1.412-0.832-2.06
	c-0.176-0.716-0.448-1.4-0.828-2.052c-0.176-0.712-0.456-1.404-0.832-2.052c-0.176-0.712-0.452-1.4-0.828-2.048
	c-0.176-0.716-0.452-1.404-0.828-2.052c-0.176-0.712-0.452-1.4-0.828-2.048c-0.172-0.708-0.452-1.396-0.82-2.044
	c-0.18-0.712-0.452-1.408-0.836-2.056c-0.172-0.716-0.452-1.404-0.828-2.052c-0.172-0.712-0.452-1.404-0.828-2.048
	c-0.172-0.716-0.448-1.404-0.828-2.052c-0.172-0.712-0.448-1.396-0.828-2.044c-0.172-0.716-0.452-1.404-0.828-2.056
	c-0.18-0.708-0.452-1.392-0.828-2.04c-0.172-0.716-0.452-1.408-0.828-2.06c-0.18-0.712-0.452-1.4-0.828-2.048
	c-0.18-0.712-0.452-1.4-0.828-2.048c-0.18-0.712-0.452-1.4-0.828-2.048c-0.18-0.712-0.452-1.4-0.828-2.048
	c-0.18-0.712-0.452-1.4-0.828-2.048c-0.18-0.712-0.452-1.4-0.828-2.048c-0.18-0.708-0.452-1.392-0.824-2.036
	c-0.176-0.716-0.456-1.408-0.832-2.064c-0.176-0.712-0.452-1.4-0.828-2.048c-0.176-0.712-0.452-1.4-0.828-2.048
	c-0.176-0.712-0.452-1.4-0.828-2.048c-0.176-0.712-0.452-1.4-0.828-2.048c-0.176-0.712-0.452-1.4-0.828-2.048
	c-0.176-0.708-0.452-1.392-0.824-2.04c-0.176-0.716-0.456-1.408-0.832-2.06c-0.176-0.712-0.452-1.4-0.828-2.048
	c-0.176-0.712-0.452-1.396-0.828-2.044c-0.176-0.716-0.452-1.404-0.832-2.056c-0.176-0.712-0.448-1.4-0.828-2.048
	c-0.176-0.712-0.448-1.4-0.828-2.048c-0.176-0.708-0.448-1.392-0.824-2.04c-0.176-0.716-0.452-1.408-0.828-2.06
	c-0.18-0.712-0.452-1.4-0.828-2.048c-0.18-0.712-0.452-1.4-0.828-2.048c-0.18-0.712-0.452-1.4-0.828-2.048
	c-0.18-0.712-0.452-1.4-0.828-2.048c-0.18-0.712-0.452-1.4-0.828-2.048c-0.18-0.708-0.452-1.392-0.828-2.036
	c-0.172-0.716-0.452-1.408-0.828-2.064c-0.18-0.712-0.452-1.4-0.828-2.048c-0.18-0.712-0.452-1.4-0.828-2.048
	c-0.18-0.712-0.452-1.4-0.828-2.048c-0.18-0.712-0.452-1.4-0.828-2.048c-0.18-0.712-0.452-1.4-0.828-2.048
	c-0.18-0.708-0.452-1.392-0.824-2.04c-0.176-0.716-0.452-1.404-0.832-2.056c-0.18-0.712-0.452-1.4-0.828-2.048
	c-0.18-0.712-0.452-1.396-0.828-2.048c-0.176-0.712-0.456-1.4-0.832-2.052c-0.176-0.712-0.452-1.4-0.828-2.048
	c-0.176-0.712-0.452-1.4-0.828-2.048c-0.176-0.712-0.452-1.4-0.828-2.048c-0.176-0.708-0.452-1.392-0.824-2.04
	c-0.176-0.716-0.452-1.408-0.832-2.06c-0.176-0.712-0.448-1.4-0.828-2.048c-0.336-1.36-1.008-2.656-2.068-3.716l-62.236-62.172
	c-3.108-3.112-8.204-3.112-11.312,0l-42.428,42.428c-6.224-6.224-16.404-6.224-22.628,0l-181.02,181.02
	c-4.94,4.94-5.892,12.352-2.988,18.32c0.228,0.704,0.5,1.384,0.828,2.048c0.228,0.7,0.5,1.376,0.824,2.044
	c0.228,0.704,0.504,1.388,0.832,2.06c0.228,0.704,0.5,1.384,0.828,2.048c0.228,0.704,0.5,1.384,0.828,2.052
	c0.228,0.7,0.5,1.38,0.828,2.048c0.228,0.7,0.5,1.376,0.828,2.044c0.228,0.704,0.504,1.384,0.832,2.056
	c0.228,0.704,0.5,1.384,0.828,2.052c0.228,0.696,0.5,1.372,0.824,2.04c0.228,0.708,0.504,1.388,0.832,2.06
	c0.228,0.704,0.5,1.384,0.828,2.052c0.228,0.7,0.5,1.38,0.828,2.048c0.228,0.7,0.5,1.38,0.828,2.052
	c0.228,0.696,0.5,1.376,0.828,2.048c0.228,0.7,0.5,1.38,0.828,2.048c0.228,0.696,0.5,1.372,0.824,2.036
	c0.228,0.708,0.504,1.388,0.832,2.068c0.228,0.696,0.5,1.38,0.828,2.048c0.228,0.7,0.5,1.38,0.828,2.048
	c0.228,0.7,0.5,1.384,0.828,2.048c0.228,0.704,0.5,1.384,0.828,2.048c0.228,0.704,0.5,1.384,0.828,2.052
	c0.228,0.696,0.5,1.372,0.824,2.04c0.228,0.708,0.504,1.388,0.832,2.06c0.228,0.704,0.5,1.384,0.828,2.052
	c0.228,0.7,0.5,1.38,0.828,2.048c0.228,0.7,0.5,1.38,0.828,2.044c0.228,0.704,0.504,1.384,0.832,2.056
	c0.228,0.704,0.5,1.384,0.828,2.052c0.228,0.696,0.5,1.372,0.824,2.04c0.228,0.708,0.504,1.388,0.832,2.06
	c0.228,0.704,0.5,1.384,0.828,2.052c0.228,0.7,0.5,1.38,0.828,2.048c0.228,0.7,0.5,1.38,0.828,2.052
	c0.228,0.696,0.5,1.38,0.828,2.048c0.228,0.7,0.5,1.38,0.828,2.048c0.228,0.696,0.5,1.372,0.824,2.036
	c0.228,0.708,0.504,1.388,0.832,2.068c0.228,0.7,0.5,1.38,0.828,2.048c0.228,0.7,0.5,1.38,0.828,2.048
	c0.228,0.704,0.5,1.384,0.828,2.048c0.228,0.704,0.5,1.384,0.828,2.052c0.228,0.7,0.5,1.38,0.828,2.048
	c0.228,0.7,0.5,1.38,0.828,2.052c0.228,0.696,0.5,1.368,0.824,2.04c0.228,0.704,0.504,1.388,0.832,2.06
	c0.228,0.7,0.5,1.376,0.828,2.044c0.228,0.704,0.504,1.384,0.832,2.056c0.228,0.704,0.5,1.384,0.828,2.052
	c0.228,0.7,0.5,1.38,0.828,2.048c0.228,0.7,0.5,1.38,0.828,2.052c0.228,0.696,0.5,1.368,0.824,2.04
	c0.228,0.704,0.504,1.388,0.832,2.06c0.228,0.7,0.5,1.38,0.828,2.052c0.228,0.696,0.5,1.376,0.828,2.048
	c0.228,0.7,0.5,1.38,0.828,2.048c0.228,0.7,0.5,1.376,0.828,2.044c0.228,0.708,0.504,1.388,0.832,2.06
	c0.228,0.696,0.5,1.372,0.824,2.04c0.228,0.704,0.504,1.388,0.832,2.06c0.228,0.7,0.5,1.38,0.828,2.052
	c0.228,0.696,0.5,1.376,0.828,2.048c0.228,0.7,0.5,1.38,0.828,2.048c0.228,0.7,0.5,1.38,0.828,2.048
	c0.228,0.704,0.5,1.384,0.828,2.048c0.228,0.704,0.5,1.38,0.828,2.048c0.228,0.7,0.5,1.376,0.828,2.044
	c0.228,0.708,0.504,1.388,0.832,2.06c0.228,0.704,0.5,1.384,0.828,2.052c0.228,0.7,0.5,1.38,0.828,2.048
	c0.228,0.7,0.5,1.38,0.828,2.052c0.228,0.696,0.5,1.376,0.828,2.048c0.228,0.7,0.5,1.38,0.828,2.048
	c0.208,0.64,0.468,1.256,0.756,1.872C181.116,503.468,217.552,512,256,512C361.416,512,451.916,448.264,491.156,357.252z"/>
<path style="fill:#E6E6E6;" d="M293.012,135.448l42.424-42.428c3.108-3.112,8.204-3.112,11.312,0l62.228,62.228
	c3.108,3.112,3.108,8.2,0,11.312l-42.42,42.428L293.012,135.448z"/>
<path style="fill:#CCCCCC;" d="M408.976,155.248l-5.656-5.656c3.108,3.112,3.108,8.2,0,11.312l-42.42,42.424l5.656,5.66
	l42.42-42.428C412.084,163.448,412.084,158.36,408.976,155.248z"/>
<path style="fill:#263740;" d="M185.532,412.636c-6.224,6.224-16.404,6.224-22.628,0l-73.54-73.544
	c-6.224-6.224-6.224-16.404,0-22.624l181.02-181.02c6.228-6.224,16.408-6.224,22.628,0l73.544,73.54
	c6.22,6.224,6.22,16.404,0,22.628L185.532,412.636z"/>
<path style="fill:#1E2C33;" d="M366.556,208.988l-11.32-11.316c6.228,6.224,6.228,16.404,0,22.628L174.22,401.32
	c-6.224,6.224-16.408,6.224-22.628,0l11.316,11.316c6.224,6.224,16.404,6.224,22.628,0l181.02-181.02
	C372.772,225.392,372.772,215.212,366.556,208.988z"/>
<g>
	
		<rect x="328.832" y="113.249" transform="matrix(0.7071 0.7071 -0.7071 0.7071 191.4628 -199.7342)" style="fill:#B3B3B3;" width="16" height="36"/>
	
		<rect x="362.76" y="147.121" transform="matrix(0.7072 0.707 -0.707 0.7072 225.2959 -213.7839)" style="fill:#B3B3B3;" width="16" height="35.996"/>
	
		<rect x="279.184" y="168.839" transform="matrix(0.7071 0.7071 -0.7071 0.7071 217.8027 -184.145)" style="fill:#B3B3B3;" width="103.999" height="4"/>
</g>
<path style="fill:#C2E2F2;" d="M259.072,293.84c3.124-3.12,3.124-8.188,0-11.312c-3.124-3.12-8.184-3.12-11.312,0
	c-2.088,2.088-2.748,5.036-2.044,7.7l-4.8,4.8l-22.224-6.064l34.724-34.724l5.656,5.66l2.828-19.8l-19.8,2.832l5.66,5.656
	l-40.384,40.38l-6.06-22.228l6.844-6.844l2.832,2.828l11.312-11.316l-11.312-11.316l-11.316,11.316l2.828,2.828l-10.124,10.128
	l8.484,31.112l-1.708,1.708c-4.46-2.116-9.932-1.38-13.624,2.312c-4.684,4.684-4.684,12.28,0,16.972
	c4.684,4.684,12.284,4.684,16.972,0c3.688-3.692,4.428-9.168,2.308-13.624l7.364-7.364l31.112,8.488l8.084-8.084
	C254.032,296.584,256.984,295.928,259.072,293.84z"/>
<g>
</g>
<g>
</g>
<g>
</g>
<g>
</g>
<g>
</g>
<g>
</g>
<g>
</g>
<g>
</g>
<g>
</g>
<g>
</g>
<g>
</g>
<g>
</g>
<g>
</g>
<g>
</g>
<g>
</g>
</svg>
