<?xml version="1.0" encoding="UTF-8" standalone="no"?>
<!-- Created with Inkscape (http://www.inkscape.org/) -->

<svg xmlns:dc="http://purl.org/dc/elements/1.1/" xmlns:cc="http://creativecommons.org/ns#" xmlns:rdf="http://www.w3.org/1999/02/22-rdf-syntax-ns#" xmlns:svg="http://www.w3.org/2000/svg" xmlns="http://www.w3.org/2000/svg" version="1.0" width="729.65601" height="795.54492" id="svg2">
    <defs id="defs4">
        <clipPath id="clipPath3919">
            <path d="m 0,0 0,8420 5950,0 L 5950,0 0,0 z" id="path3921" />
        </clipPath>
        <clipPath id="clipPath3925">
            <path d="m 5490.52,4233.05 c -0.49,3.47 0.66,5.32 2.96,5.97 4.99,-11.83 8.04,-6.13 17.94,-2.98 0.46,-7.43 10.1,-0.87 11.95,0 10.9,-10.68 23.79,-1.25 38.84,0 3.54,-9.38 10.22,-1.04 17.91,-8.97 4.48,3.49 7.29,8.64 14.93,8.97 5.3,-6.64 12.22,-11.66 26.88,-8.97 7.46,-12.14 9.59,2.54 20.89,0 2.56,-8.75 7.53,3.9 14.95,0 0.63,-3.34 3.3,-4.64 5.96,-5.96 -0.09,-9.07 10.49,-7.44 17.93,-8.97 7.77,-3.18 18.16,-3.73 20.9,-11.94 8.29,-3.66 13.98,-9.92 20.91,-14.94 3.83,-0.16 4.14,-3.83 8.96,-2.99 0.63,-3.34 3.31,-4.65 5.98,-5.97 0.1,10.84 14.14,7.76 17.91,14.93 9.38,-1.41 7.89,8.04 14.95,8.97 6.21,-0.88 -4.44,-8.09 5.96,-8.97 4.04,2.93 3.88,10.07 8.97,11.96 7.43,2.83 18.01,-10.67 17.91,2.98 0.99,0 2,0 3,0 22.27,3.36 16.52,-21.28 38.82,-17.92 4.64,10.61 -10.15,1.8 -8.97,8.97 2.94,8.36 7.97,-4.34 11.95,2.98 1,0 2,0 2.98,0 6.65,-4.85 16.66,-10.76 23.91,-8.97 11.04,5.51 10.74,3.81 26.87,2.99 5.7,-4.25 12.97,-6.95 20.9,-8.96 0.39,-6.59 12.67,-1.26 17.93,-2.99 -5.53,-6.41 -2.02,-21.88 -2.98,-32.85 0.87,-10.4 8.07,0.25 8.95,-5.97 -5.32,-2.19 -0.44,-5.43 0,-8.97 2.99,0 5.98,0 8.98,0 0.97,0 1.98,0 2.96,0 4,0 7.97,0 11.96,0 7.33,2.38 -8.48,18.31 5.95,17.92 1.98,-4 6.41,-5.55 11.98,-5.96 16.64,-3.5 29.09,-20.46 47.76,-29.87 0.58,-4.43 7.23,-2.74 11.96,-2.98 20.26,-14.54 47.8,-16.58 77.64,-26.88 -7.77,-18.23 9.72,-14.93 5.98,-32.86 17.49,-5.28 37.56,-20.46 44.81,3 2.99,0 5.96,0 8.94,0 -3.32,-4.31 -3.2,-7.3 3,-8.97 -0.29,13.23 22.44,3.44 23.9,14.92 2.53,0.55 2.8,-1.16 2.99,-2.98 7.44,-7.2 58.29,8.36 38.82,8.95 -1.39,14.15 2.59,4.45 11.94,5.99 15.21,3.07 32.97,4.02 38.84,-11.96 5.24,11.72 18.18,2.16 29.85,3 8.97,-0.76 24.29,-5.2 35.83,0 11.68,-2.28 18.56,-9.34 26.9,-14.94 2.56,-2.41 1.77,-8.17 5.97,-8.97 0.11,-9.81 5.04,-14.85 2.97,-26.87 4.26,0.25 8.47,0.5 8.98,-2.98 10.3,2.62 -0.74,11.99 5.98,20.91 9.6,0.64 12.62,-5.29 23.88,-3 3.19,7.3 -16.6,17.16 -26.87,20.91 8.93,0.84 29.07,3 35.84,2.99 2.43,0.56 2.97,3 5.97,3 19.55,-9.05 21.88,-0.33 41.81,-8.97 3.46,-12.47 15.42,-16.45 23.9,-23.9 9.09,3.66 -4.36,11.4 2.99,14.94 1.99,0 3.97,0 5.97,0 24.28,-15.54 43.86,-35.78 71.68,-47.79 9.13,-2.16 8.79,5.15 17.92,2.98 1.56,-2.39 3.11,-4.84 2.99,-8.97 16.05,8.28 53.87,7.48 59.72,-11.92 10.75,3.18 19.11,8.77 23.89,17.91 1.01,0 1.99,0 2.99,0 6.12,-14.59 30.6,0.16 32.85,8.97 14.17,-4.51 28.54,-1.17 26.88,17.91 26.71,2.52 45.42,-0.84 56.75,26.88 -43.28,-442.53 -97.13,-900.39 -152.32,-1341 -6.56,-8.08 -9.9,-0.82 -17.91,-5.98 -6.56,11.37 -10.13,25.72 -20.91,32.85 -4.72,21.21 25.9,40.8 2.99,44.81 1.43,9.51 9.4,12.5 8.95,23.89 -6.86,15.04 -17.48,26.31 -32.85,32.85 6.14,38.5 -3.46,77.71 -38.83,74.66 1.27,6.24 -2.03,7.91 -3,11.95 -22.54,0.17 -40.23,-4.92 -50.75,-8.95 11.52,-1.4 22.13,-5.9 32.84,-14.94 5.5,10.42 0.59,12.66 -2.97,20.9 8.79,-4.07 18.78,4.3 20.88,-14.95 29.76,8.18 37.25,-37.32 29.89,-65.69 12.5,-13.36 33.33,-18.4 38.82,-38.81 -6.7,-4.27 -5.71,-16.21 -11.96,-20.91 -0.91,-6.89 8.65,-3.32 8.98,-8.98 3.06,-14.4 -8.77,-18.19 -8.98,-26.86 -0.3,-13.75 10.55,-17.35 14.94,-29.89 1.73,-4.9 -1.72,-11.68 0,-17.91 1.16,-4.16 8.57,-1.14 8.96,-5.96 -7.6,-0.32 -7.05,-11.15 -2.99,-14.93 4.14,5.41 8.47,6.74 11.97,2.98 -0.59,-2.41 -3.02,-2.98 -2.99,-5.98 15.13,-4.41 18.45,12.88 26.86,5.98 -1.75,-10.73 3.49,-14.45 5.99,-20.91 2.2,-14.72 8.74,-25.11 17.91,-32.86 -0.25,-4.23 -0.5,-8.46 3,-8.95 -1.23,-7.2 5.44,-6.49 2.98,-14.93 16.77,2.8 20.25,-7.64 32.86,-8.98 7.18,1.22 6.47,-5.45 14.92,-2.98 0.46,-5.52 10.12,-1.82 11.96,-5.96 1.8,-0.18 3.52,-0.45 2.97,-2.98 0,-4.98 0,-9.96 0,-14.95 11.5,1.43 18.65,7.23 20.91,17.93 1,0 2.01,0 2.99,0 4.4,-1.57 7.53,-4.43 11.94,-5.98 10.49,-14.72 32.32,3.55 47.81,3 4.25,1.14 5.02,3.56 8.94,0 1.77,-12.74 -2.15,-19.77 -2.99,-29.88 8.41,9.51 15.19,20.64 20.91,32.86 2.32,-0.68 3.49,-2.51 2.99,-5.98 0,-1.01 0,-1.98 0,-2.99 8,1.95 11.36,8.55 17.91,11.95 7.97,3 9.84,12.07 14.95,17.91 11.54,1.61 14.56,-5.32 26.87,-2.97 9.95,-29.87 25.95,-53.7 47.81,-71.69 -1.78,-10.18 -8.22,-15.69 -8.99,-26.88 13.03,-8.95 43.69,6.97 50.78,-17.92 -9.87,-16.85 -7.15,-26.37 2.98,-41.81 11.52,6.99 17.01,9.71 29.89,2.98 -0.98,-6.98 -3.6,-12.34 -5.99,-17.91 42.28,-19.46 51.13,-72.32 74.68,-110.5 -4.32,-4.65 -6.29,-11.66 -8.98,-17.93 13.66,-7.27 16.16,-25.65 41.83,-20.91 0.51,-7.47 -4.6,-9.35 -8.99,-11.95 -4.8,0.85 -5.12,-2.81 -8.94,-2.97 0,-2.99 0,-5.98 0,-8.98 0.96,-4.02 4.25,-5.7 2.98,-11.94 -1.82,-4.14 -11.49,-0.44 -11.94,-5.97 -17.66,-12.03 -50.26,-6.66 -53.77,-38.84 -18.65,-6.92 -36.46,0.07 -50.77,5.99 12.57,9.6 -4.02,15.15 -14.92,17.91 -0.88,-28.75 29.94,-25.79 44.81,-38.82 -26.32,-9.52 -7.62,-64.05 -44.81,-62.73 0,-3.97 0,-7.97 0,-11.94 -2.56,0.55 -2.82,-1.16 -2.99,-2.99 -1.26,-6.22 2.03,-7.91 2.99,-11.94 -18.2,-12.65 -35.84,-25.88 -47.79,-44.79 -9.12,-2.16 -10.89,3.05 -17.92,2.98 0,-4.98 0,-9.96 0,-14.93 0,-1 0,-1.99 0,-3 -1.84,0.88 -11.49,7.43 -11.95,0 -8.89,-0.04 -3.82,-14.09 -8.97,-17.91 -0.56,-2.43 -2.99,-2.97 -2.97,-5.98 0.53,-6.5 -2.44,-9.5 -8.97,-8.95 2.41,10.34 -4.45,11.47 -2.98,20.9 -19.86,-3.47 -15.06,25.24 -29.86,17.93 0.43,7.39 0.53,14.5 -5.98,14.92 0,0.98 0,1.99 0,2.99 -1.12,8.32 11.36,18.18 2.98,23.89 -0.07,-2.9 -3.66,-2.32 -5.97,-2.98 0,1.99 0,3.98 0,5.96 -3.29,27.31 -7.28,46.8 -11.94,77.66 -3.01,1.93 -10.29,1.8 -20.91,2.98 -1.26,6.24 2.05,7.92 2.99,11.95 -7.04,-0.05 -8.78,5.14 -17.92,2.99 0.51,8.65 12.17,13.62 -2.99,14.93 -2.41,2.56 -8.18,1.79 -8.95,5.98 -1.79,10.74 1.07,16.84 8.95,17.91 -7.38,5.49 -10.77,7.46 -2.99,14.93 0.56,2.44 3,3 2.99,5.99 -12.86,14.29 -46.13,30.42 -53.75,11.93 -11.81,-7.11 -22.24,-15.59 -29.88,-26.86 -0.25,-10.69 -4.64,-17.27 -5.96,-26.9 -2.34,-0.64 -3.5,-2.49 -3,-5.96 -11.36,2.4 -3.79,-14.12 -5.98,-20.9 -19.35,-10.2 -50.56,-22.53 -71.67,-5.99 -5.96,0 -11.94,0 -17.93,0 -7.41,0.46 -9.23,-4.68 -14.92,-5.96 -2.43,-0.58 -2.98,-2.99 -5.99,-2.99 -8.79,2.27 -15.54,22.11 -20.91,17.91 -22.56,-8 -39.56,-6.05 -53.75,-2.97 -7.93,-6.02 -2.84,-25.03 -14.93,-26.89 -13.93,4.67 -14.6,14.74 -32.85,8.98 -0.99,0 -1.99,0 -2.99,0 0.52,7.47 -4.58,9.32 -8.97,11.92 -2.4,0.58 -2.96,3 -5.95,3 0.54,2.53 -1.18,2.81 -2.99,2.99 -2.58,2.41 -1.77,8.16 -5.99,8.95 0,1.99 0,3.99 0,5.97 0,2 0,3.99 0,5.98 -12,2.05 -17.03,-2.87 -26.87,-2.98 -1.55,17.37 -12.74,25.08 -20.9,35.84 0.4,5.56 1.96,9.97 5.97,11.94 -14.2,16.68 -20.12,41.6 -29.87,62.72 0,2 0,3.98 0,5.97 0,5 0,9.94 0,14.94 -36.09,-1.96 -5.53,-37.3 -29.85,-53.77 -17.35,-2.32 -28.33,5.22 -44.83,-5.96 -4.79,4.14 -9.45,8.46 -14.92,11.94 -13.75,-4.18 -21.39,-14.46 -32.84,-20.92 -11.22,10.58 -29.59,20.12 -44.81,17.93 3.17,15.62 0.55,23.77 -8.95,32.86 -13.43,-2.5 -16.47,-15.41 -29.89,-17.91 -2.27,7.67 -7.25,12.65 -14.92,14.92 -8.04,2.06 -5.78,-6.17 -8.97,-8.97 -8.06,0.9 -5.33,12.57 -11.95,14.94 -20.73,-8.82 -44.2,-21.7 -47.77,-38.83 -9.61,-2.63 -4.1,9.87 -11.95,8.96 0.25,-4.7 -1.45,-11.38 2.98,-11.93 -0.56,-2.43 -2.98,-2.99 -2.98,-5.98 -9.44,0.49 -9.98,-7.94 -20.92,-5.99 2.32,20.3 -18.15,26.72 -8.95,44.82 -25.92,0.07 -32.43,-17.94 -32.85,-35.84 -16.89,6 -43.21,2.59 -38.82,29.85 -18.58,3.34 -30.22,13.62 -56.75,8.97 -1.3,9.87 4.73,19.11 -2.99,32.85 -5.28,-2.68 -3.81,-12.12 -14.93,-8.97 -5.08,1.89 -4.92,9.03 -8.97,11.96 -12.5,-2.41 -19.94,-9.94 -29.86,-14.93 -6.31,2.64 -8.82,9.09 -17.92,8.96 6.75,5.19 2.77,21.12 11.94,23.9 -8.83,10.23 -17.62,27.54 -32.85,14.92 1.26,6.25 -2.04,7.92 -2.99,11.94 -31.29,1.4 -86.57,-37.2 -95.57,17.91 -13.63,2.69 -16.92,-4.95 -26.88,-5.95 2.75,12.69 -7.16,12.74 -17.91,11.94 0.04,8.91 7.77,10.16 8.95,17.92 -1.22,12.72 -15.22,12.64 -14.92,26.88 -20.46,2.98 -44.32,-6.34 -38.83,11.94 -34.53,-13.03 -62.62,-57 -89.6,-8.94 -2.42,-0.59 -2.99,-3.01 -5.99,-3 -3.96,0 -7.96,0 -11.92,0 -0.5,3.51 -5.47,2.52 -8.98,3 -8.44,8.1 8.36,22.91 -8.95,20.89 2.36,5.59 4.98,10.95 5.95,17.91 -9.19,10.72 -27.44,12.38 -32.85,26.89 0.5,8.46 5.48,12.46 5.99,20.91 -10.05,0.08 -15.8,-4.11 -20.91,-8.96 -8.13,4.82 -12.58,13.32 -14.93,23.89 -8.04,2.07 -5.78,-6.19 -8.97,-8.94 -5.52,0.43 -1.81,10.09 -5.95,11.94 -18.36,-0.37 -30.31,-9.11 -47.8,0 -1.19,14.72 -6.52,25.33 -17.92,29.86 -9.8,6.87 -14.12,-12.38 -23.9,-14.93 1.47,9.41 -5.37,10.54 -3,20.89 0,2 0,4 0,5.99 -30.54,-1.69 -45.31,12.41 -50.76,35.84 0,1.99 0,3.97 0,5.96 -12.45,-0.07 -14.73,-10.32 -26.87,-2.96 -3.97,7.55 -13.28,-4.4 -20.91,-3 0,3.97 0,7.96 0,11.94 1.88,11.18 4.7,17.1 -5.97,20.91 0.01,2.99 -2.43,3.55 -3,5.97 -16.14,-5.75 -19.92,-23.87 -32.85,-32.86 0,10.95 0,21.91 0,32.86 -56.44,-1.19 -14.57,72.45 -23.9,113.49 39.56,496.04 75.79,995.46 110.51,1496.32 6.6,0.37 1.27,12.67 2.99,17.91 9.09,0.14 11.61,-6.3 17.92,-8.95 1.22,-3.75 3.86,-6.11 8.97,-5.97 0.61,-3.36 3.31,-4.64 5.96,-5.98 12.74,-9.17 37.48,-6.33 44.81,-20.9 4.94,0.04 1.67,8.28 5.98,8.95 0.77,-4.2 6.54,-3.39 8.95,-5.97 21.88,6.36 48.02,-4.58 56.74,-20.9 0,-1 0,-2 0,-2.99 1.55,-4.42 4.44,-7.53 5.98,-11.94 6.14,-2.63 13.42,7.73 5.98,8.95 0,1 0,1.99 0,2.99 z M 6505.98,2930.87 c 12.68,-3.8 5.03,-4.78 2.98,-14.94 12.39,-0.8 11.64,3.93 20.92,0 -11.09,12.75 -27.65,22.36 -17.93,47.79 -5.25,-1.72 -17.54,3.62 -17.91,-2.99 -3.46,2.52 -8.02,3.95 -14.94,2.99 -13.69,1.73 -13.92,-9.97 -20.91,-14.93 -11.98,9.35 -23.72,10.29 -38.82,2.99 -10.16,11.61 -20.95,13.96 -14.94,35.84 -11.95,-1.01 -16.58,5.32 -29.87,2.97 -5.94,7 -6.86,19.02 -5.97,32.87 -19.55,5.34 -18.27,31.51 -32.86,41.81 -16.28,-2.63 -29.62,-8.21 -50.77,-5.96 -13.32,-10.67 38.43,1.18 53.75,0 5.01,-28.87 31.17,-36.56 29.88,-71.69 13.17,0.21 25.68,-0.22 29.87,-8.97 -1.55,-4.41 -4.41,-7.53 -5.98,-11.94 14.12,-3.8 14.86,-21.01 29.88,-23.9 10.08,-0.08 13.28,15.71 23.88,5.98 0.64,-3.35 3.31,-4.65 5.97,-5.98 14.06,-3.1 15.02,6.9 20.91,11.95 10.27,-1.3 16.74,1.18 23.91,2.97 0.98,0 1.99,0 2.96,0 7.19,-3.77 -1.64,-23.53 5.99,-26.86" id="path3927" />
        </clipPath>
    </defs>
    <metadata id="metadata7">
        <rdf:RDF>
            <cc:Work rdf:about="">
                <dc:format>image/svg+xml</dc:format>
                <dc:type rdf:resource="http://purl.org/dc/dcmitype/StillImage" />
                <dc:title></dc:title>
            </cc:Work>
        </rdf:RDF>
    </metadata>
    <g transform="translate(0.2376208,-131.8097)" id="layer1">
        <path d="m 279.07128,142.625 c -3.2435,-0.0142 -16.7552,7.1047 -23.125,12.1875 -3.6075,2.87851 -41.3463,17.2699 -67.2813,25.65625 -29.3326,9.48498 -37.7437,11.80078 -53.4687,14.78125 -24.6191,4.66621 -38.646801,15.46857 -50.000001,38.46875 -3.2153,6.51382 -7.033,16.94488 -8.4688,23.1875 -1.4359,6.24262 -3.2953,12.05904 -4.125,12.90625 -0.8298,0.84721 -1.5,4.54715 -1.5,8.25 0,6.46386 -0.6878,7.84541 -10.5312,21.1875 -1.3867,1.87935 -3.0999,8.23715 -3.8125,14.15625 -0.9405,7.8122 -2.3029,11.87701 -5.0313,14.78125 -3.1561,3.35957 -4.0054,6.6797 -5.25,20.6875 -1.606,18.07609 -2.3653,21.18958 -13.4375,56.40625 -8.5227,27.10788 -15.5027,53.837 -20.1562,77 -3.555,17.69447 -6.5011,43.8125 -5.4063,48.09375 0.3792,1.48243 3.7309,3.80691 7.4375,5.15625 3.7066,1.34932 10.8267,3.93708 15.8125,5.75 27.9248,10.15395 36.8666,11.87508 65.1563,12.53125 l 27.218701,0.625 5.6875,5.6875 c 4.9604,4.96043 6.6774,5.6875 13.7188,5.6875 4.4292,10e-6 8.0635,0.51865 8.0625,1.1875 -0.005,3.27714 -8.6725,35.69036 -10.5,39.28125 -3.2995,6.48307 -4.4861,27.05143 -2.3125,39.78125 2.9137,17.06551 2.5401,22.88929 -2.5313,39.6875 -5.3751,17.80419 -4.8517,23.67954 3.875,43.5625 5.8138,13.24638 6.1652,19.78206 1.7188,31.0625 -3.703,9.3946 -4.156,18.07047 -1.2188,23.21875 1.3778,2.41501 2.3285,16.16177 3,43.25 0.9952,40.14579 3.9057,62.92332 8.625,67.78125 1.5692,1.61525 4.2664,1.76583 11.625,0.59375 10.8221,-1.72382 47.0649,0.14269 59.8438,3.09375 4.4623,1.03047 16.8921,4.31616 27.5937,7.28125 19.4955,5.40161 47.8087,11.37966 59.9688,12.65625 3.5672,0.3745 22.2012,0.48734 41.375,0.25 28.2418,-0.34955 38.0824,-1.11717 51.875,-3.96875 28.8305,-5.96066 43.2704,-10.54595 74.6875,-23.78125 34.5654,-14.56161 59.8797,-22.27737 79.8125,-24.3125 8.1504,-0.8322 11.4115,-1.88052 12.5625,-4.03125 2.0659,-3.86009 1.986,-38.55826 -0.125,-54.5 -0.924,-6.97598 -3.2156,-17.15977 -5.0938,-22.625 l -3.4062,-9.90625 5.9687,-13.9375 c 11.5292,-26.84295 13.2159,-48.03976 4.7813,-60.46875 -3.1424,-4.63046 -3.8535,-7.17191 -3.0313,-11 9.5589,-44.50546 11.0722,-81.85792 4.6875,-115.875 l -1.0312,-5.46875 11.1562,1.25 c 20.1532,2.27752 28.744,-0.01 38.5,-10.28125 3.5029,-3.68794 6.6801,-5.18065 12.9688,-6.03125 19.8216,-2.68105 45.8843,-9.44938 66.7187,-17.34375 19.3598,-7.33558 19.0101,-6.72538 13.8125,-23.875 -1.7644,-5.82188 -5.4678,-18.62768 -8.2187,-28.4375 -6.6345,-23.65867 -16.2055,-54.52094 -26.125,-84.1875 -7.2615,-21.71716 -7.9877,-25.1657 -7.0313,-33.40625 1.3574,-11.69524 -1.1242,-20.95561 -7.0312,-26.21875 -4.2643,-3.79944 -4.7206,-5.27963 -5.7188,-19.3125 -1.0222,-14.36951 -7.3059,-43.6623 -10.7812,-50.15625 -0.8755,-1.6358 -1.5938,-4.79414 -1.5938,-7.03125 0,-2.23713 -1.9631,-9.32746 -4.3437,-15.75 -6.5621,-17.70318 -18.9403,-30.15364 -40.1563,-40.40625 -8.98,-4.33953 -26.1795,-11.24707 -38.2187,-15.375 -65.3935,-22.4215 -78.4721,-27.76817 -94.875,-38.65625 -7.6668,-5.0891 -10.0014,-5.92803 -12.7813,-4.59375 -14.6173,7.01589 -56.5718,13.25037 -89.2187,13.25 -32.698,-3.7e-4 -55.6249,-4.51623 -79.5625,-15.65625 -4.4591,-2.07511 -9.7568,-3.77254 -11.75,-3.78125 z" id="path3072" style="fill:#166fff;fill-opacity:1" />
        <path d="m 279.07128,142.625 c -3.2435,-0.0142 -16.7552,7.1047 -23.125,12.1875 -3.6075,2.87851 -41.3463,17.2699 -67.2813,25.65625 -29.3326,9.48498 -37.7437,11.80078 -53.4687,14.78125 -24.6191,4.66621 -38.646801,15.46857 -50.000001,38.46875 -3.2153,6.51382 -7.033,16.94488 -8.4688,23.1875 -1.4359,6.24262 -3.2953,12.05904 -4.125,12.90625 -0.8298,0.84721 -1.5,4.54715 -1.5,8.25 0,6.46386 -0.6878,7.84541 -10.5312,21.1875 -1.3867,1.87935 -3.0999,8.23715 -3.8125,14.15625 -0.9405,7.8122 -2.3029,11.87701 -5.0313,14.78125 -3.1561,3.35957 -4.0054,6.6797 -5.25,20.6875 -1.606,18.07609 -2.3653,21.18958 -13.4375,56.40625 -8.5227,27.10788 -15.5027,53.837 -20.1562,77 -3.555,17.69447 -6.5011,43.8125 -5.4063,48.09375 0.3792,1.48243 3.7309,3.80691 7.4375,5.15625 3.7066,1.34932 10.8267,3.93708 15.8125,5.75 27.9248,10.15395 36.8666,11.87508 65.1563,12.53125 l 27.218701,0.625 5.6875,5.6875 c 4.9604,4.96043 6.6774,5.6875 13.7188,5.6875 4.4292,10e-6 8.0635,0.51865 8.0625,1.1875 -0.005,3.27714 -8.6725,35.69036 -10.5,39.28125 -3.2995,6.48307 -4.4861,27.05143 -2.3125,39.78125 2.9137,17.06551 2.5401,22.88929 -2.5313,39.6875 -5.3751,17.80419 -4.8517,23.67954 3.875,43.5625 5.8138,13.24638 6.1652,19.78206 1.7188,31.0625 -3.703,9.3946 -4.156,18.07047 -1.2188,23.21875 1.3778,2.41501 2.3285,16.16177 3,43.25 0.9952,40.14579 3.9057,62.92332 8.625,67.78125 1.5692,1.61525 4.2664,1.76583 11.625,0.59375 10.8221,-1.72382 47.0649,0.14269 59.8438,3.09375 4.4623,1.03047 16.8921,4.31616 27.5937,7.28125 19.4955,5.40161 47.8087,11.37966 59.9688,12.65625 3.5672,0.3745 22.2012,0.48734 41.375,0.25 28.2418,-0.34955 38.0824,-1.11717 51.875,-3.96875 28.8305,-5.96066 43.2704,-10.54595 74.6875,-23.78125 34.5654,-14.56161 59.8797,-22.27737 79.8125,-24.3125 8.1504,-0.8322 11.4115,-1.88052 12.5625,-4.03125 2.0659,-3.86009 1.986,-38.55826 -0.125,-54.5 -0.924,-6.97598 -3.2156,-17.15977 -5.0938,-22.625 l -3.4062,-9.90625 5.9687,-13.9375 c 11.5292,-26.84295 13.2159,-48.03976 4.7813,-60.46875 -3.1424,-4.63046 -3.8535,-7.17191 -3.0313,-11 9.5589,-44.50546 11.0722,-81.85792 4.6875,-115.875 l -1.0312,-5.46875 11.1562,1.25 c 20.1532,2.27752 28.744,-0.01 38.5,-10.28125 3.5029,-3.68794 6.6801,-5.18065 12.9688,-6.03125 19.8216,-2.68105 45.8843,-9.44938 66.7187,-17.34375 19.3598,-7.33558 19.0101,-6.72538 13.8125,-23.875 -1.7644,-5.82188 -5.4678,-18.62768 -8.2187,-28.4375 -6.6345,-23.65867 -16.2055,-54.52094 -26.125,-84.1875 -7.2615,-21.71716 -7.9877,-25.1657 -7.0313,-33.40625 1.3574,-11.69524 -1.1242,-20.95561 -7.0312,-26.21875 -4.2643,-3.79944 -4.7206,-5.27963 -5.7188,-19.3125 -1.0222,-14.36951 -7.3059,-43.6623 -10.7812,-50.15625 -0.8755,-1.6358 -1.5938,-4.79414 -1.5938,-7.03125 0,-2.23713 -1.9631,-9.32746 -4.3437,-15.75 -6.5621,-17.70318 -18.9403,-30.15364 -40.1563,-40.40625 -8.98,-4.33953 -26.1795,-11.24707 -38.2187,-15.375 -65.3935,-22.4215 -78.4721,-27.76817 -94.875,-38.65625 -7.6668,-5.0891 -10.0014,-5.92803 -12.7813,-4.59375 -14.6173,7.01589 -56.5718,13.25037 -89.2187,13.25 -32.698,-3.7e-4 -55.6249,-4.51623 -79.5625,-15.65625 -4.4591,-2.07511 -9.7568,-3.77254 -11.75,-3.78125 z m -2.1875,6.46875 c 0.9377,0 3.1663,2.84076 4.9375,6.3125 5.8446,11.45638 23.1048,32.78412 33.4062,41.28125 20.1735,16.64006 43.7332,24.53001 61.8438,20.6875 19.5685,-4.15186 36.5777,-12.82924 53.7187,-27.375 8.476,-7.19269 24.4898,-24.94468 29.625,-32.8125 l 2.625,-3.96875 6.7188,4.4375 c 3.6947,2.44504 6.7187,5.18917 6.7187,6.09375 0,3.85646 -10.1747,21.28457 -18.5625,31.8125 -17.1835,21.56764 -39.6132,34.68131 -69,40.34375 -35.6393,6.86723 -68.7433,-3.62077 -97.0625,-30.78125 -15.1813,-14.56015 -31.0312,-37.68863 -31.0312,-45.28125 0,-2.2814 12.6557,-10.75001 16.0625,-10.75 z m 210.0312,19.4375 c 0.2452,0 5.4826,2.09417 11.625,4.625 6.1423,2.53084 15.5554,6.10592 20.9063,7.96875 5.3507,1.86283 23.5048,8.15741 40.3437,14 36.0408,12.50509 54.1989,20.94886 64.375,29.90625 7.8662,6.9241 16.2095,20.93355 19.2188,32.25 2.0563,7.73297 1.4339,9.42551 -10.2188,27.90625 l -6.5625,10.40625 -2.25,-5.5625 c -3.5053,-8.67189 -6.6134,-11.21874 -13.5625,-11.21875 -4.9758,0 -7.5148,1.22146 -12.6875,6.09375 -7.4576,7.0246 -8.9818,11.79366 -14.5937,45.78125 -1.988,12.03933 -3.9016,22.19091 -4.25,22.5625 -0.3486,0.37158 -0.625,-9.32339 -0.625,-21.5625 0,-38.3112 -6.6242,-73.96874 -13.7188,-73.96875 -4.0571,0 -6.0036,32.76237 -3.7187,62.4375 0.9554,12.40966 1.9973,25.22801 3.625,44.59375 3.8737,46.08972 2.3899,92.87165 -4.1563,131.3125 -5.0551,29.68374 -6.3385,34.19357 -33.9687,117.40625 -12.4666,37.54497 -23.3943,70.51129 -24.2813,73.25 -1.9481,6.01489 -2.1309,13.65624 -0.3125,13.65625 3.3389,0 12.2975,-12.34805 34.125,-47.03125 l 3.5625,-5.65625 -1.0937,4.84375 c -1.7855,7.80789 -9.2978,28.81728 -20.5625,57.5625 -12.0848,30.83714 -18.9975,45.95125 -26.5625,58 -5.9201,9.4286 -6.6279,12.96613 -2.875,14.40625 4.4048,1.69028 8.9963,-4.61329 20.2812,-27.8125 12.7898,-26.29281 21.3041,-47.77424 39.5625,-99.71875 2.978,-8.47211 5.9316,-16.6632 6.5625,-18.21875 1.3809,-3.40498 4.0626,-2.19347 4.0625,1.84375 0,1.58854 2.3122,7.49608 5.125,13.125 5.5566,11.11974 5.5565,11.42463 -0.1875,39.75 -2.8569,14.08822 -36.2199,76.4072 -62.7812,117.3125 -9.0257,13.89984 -10.227,18.87499 -4.5625,18.875 2.2439,0 6.0075,-4.17893 12.375,-13.78125 13.1446,-19.8224 35.6161,-58.74641 48.8437,-84.59375 6.2754,-12.26256 11.9778,-21.95057 12.6563,-21.53125 2.5273,1.56199 3.3282,13.87911 1.5,22.96875 -3.8241,19.01324 -13.7766,42.81799 -22.5313,53.96875 -11.9459,15.21539 -25.1957,29.32362 -33.6875,35.875 -6.4057,4.94195 -8.6649,7.7327 -8.3125,10.1875 0.2664,1.85548 1.5982,3.58892 2.9375,3.84375 3.7059,0.7051 21.9578,-15.36662 36.4375,-32.0625 l 12.9375,-14.9375 1.875,4.625 c 2.9894,7.48199 5.8056,35.82964 5.2188,52.46875 l -0.5313,15.40625 -4.875,0.4375 c -21.3685,1.9044 -52.38,11.2228 -87.5625,26.3125 -23.4631,10.06324 -49.0752,18.01541 -73.0312,22.65625 -19.9755,3.86971 -68.8105,5.67486 -89.9375,3.34375 -17.0204,-1.87799 -43.4163,-7.44019 -61.5938,-13 -20.3088,-6.21171 -39.8401,-9.754 -54.0937,-9.78125 -6.3671,-0.0122 -13.0602,-0.42436 -14.8438,-0.90625 -4.109,-1.11016 -26.3121,-44.49063 -24.375,-47.625 1.9039,-3.08048 12.3297,-1.37875 43.0313,7.0625 21.937,6.03153 57.2311,14.89097 70.5312,17.6875 10.952,2.30281 19.1808,3.91897 38.125,7.46875 21.7664,4.07863 84.8646,9.878 107,9.84375 15.8212,-0.0245 50.8117,-4.15595 55.25,-6.53125 2.6212,-1.40287 3.0142,-2.32954 1.5938,-3.75 -2.1843,-2.18425 -21.0728,-1.80521 -29.4375,0.59375 -7.4375,2.13305 -24.0304,1.99636 -33.4688,-0.28125 -25.469,-6.14589 -74.1538,-24.3303 -109.625,-40.9375 -8.7775,-4.10952 -16.2537,-7.46876 -16.625,-7.46875 -1.4888,0 -32.5155,-18.43649 -43.375,-25.78125 -17.7972,-12.03688 -37.3001,-33.52862 -49.5,-54.5 -5.6992,-9.79667 -14.2395,-24.41066 -18.9687,-32.46875 -20.5931,-35.08821 -26.5416,-60.71876 -14.0938,-60.71875 3.5152,0 7.4793,3.07328 18.2813,14.21875 11.4374,11.80121 16.0977,18.36828 27.375,38.5 17.2897,30.86475 31.6933,52.55502 45.4375,68.46875 11.5364,13.35738 18,16.83806 18,9.6875 0,-2.15331 -1.5765,-5.30112 -3.4688,-7 -4.1957,-3.76686 -17.625,-21.03338 -17.625,-22.65625 0,-0.64301 3.818,2.453 8.5,6.875 38.6784,36.53089 102.7429,66.98377 162.5625,77.28125 39.921,6.87208 42.9688,7.10262 42.9688,3.5 0,-1.3377 -0.3815,-2.43753 -0.8438,-2.4375 -2.9957,0 -26.9174,-7.20869 -33.0625,-9.96875 -18.8421,-8.46309 -33.6587,-16.58107 -36.625,-20.0625 -1.7836,-2.09336 -8.3511,-7.2223 -14.5937,-11.40625 -59.1726,-39.65903 -129.3266,-120.32682 -166.2813,-191.21875 -5.5786,-10.70162 -11.7406,-21.03526 -13.7187,-22.96875 -7.3878,-7.22138 -22.3917,-62.21123 -29.7813,-109.1875 -10.2944,-65.44373 -12.1632,-146.85483 -5.3437,-231.8125 1.0054,-12.52569 1.4578,-13.90767 5.1562,-15.6875 2.2295,-1.07294 22.6341,-7.98094 45.375,-15.34375 22.741,-7.3628 44.388,-14.71283 48.0938,-16.34375 3.7057,-1.63094 7.7382,-2.566 8.9375,-2.0625 1.1991,0.5035 5.3127,4.86212 9.1562,9.65625 8.5033,10.60656 25.3682,24.48244 38.1563,31.40625 21.021,11.3815 47.4178,16.35226 70.3125,13.21875 42.1446,-5.76817 73.406,-27.14706 95.5937,-65.3125 4.018,-6.91147 7.5049,-12.56251 7.75,-12.5625 z m -361.8125,77.28125 c 2.2712,-0.39999 2.3763,2.45344 0.0625,8.34375 -2.8601,7.2812 -6.6239,8.78262 -10.4375,4.1875 -1.8757,-2.26002 -1.3184,-3.34736 4.0313,-8.25 2.8475,-2.60955 4.981,-4.04126 6.3437,-4.28125 z m -16.5625,20 c 0.7127,0 3.2195,1.67215 5.5625,3.6875 l 4.25,3.65625 -2.4687,10.53125 c -1.3559,5.7879 -2.8744,13.2495 -3.4063,16.59375 -0.532,3.34426 -1.5422,6.09375 -2.2187,6.09375 -1.528,0 -11.593801,-10.28431 -11.593801,-11.84375 0,-0.6264 1.0077,-1.125 2.250001,-1.125 3.0815,0 4.3146,-3.75754 5.4063,-16.625 0.5108,-6.01965 1.506,-10.96876 2.2187,-10.96875 z m 539.7813,14.59375 c 2.1275,0 6.538,20.73077 8.7187,40.9375 1.8744,17.36756 2.4012,19.21129 6.3438,22.3125 5.5833,4.39181 7.5954,11.98078 5.9375,22.46875 -1.1661,7.37732 -0.6354,10.36468 4.4062,24.96875 14.7335,42.67896 34.8714,110.2497 33.3125,111.71875 -1.6601,1.56447 -15.4846,5.59794 -43.9687,12.84375 -13.7477,3.49713 -25.9663,6.375 -27.1563,6.375 -2.6475,0 -2.7719,-8.13482 -0.625,-41.625 0.8477,-13.22501 1.9172,-60.37348 2.375,-104.75 l 0.8438,-80.6875 4.25,-7.28125 c 2.3463,-4.00372 4.8514,-7.28124 5.5625,-7.28125 z m -37.75,8.4375 c 4.1578,0.0297 5.3235,2.5841 5.125,9.40625 -0.1398,4.80343 -1.7719,7.16542 -10.5938,15.34375 l -10.4062,9.65625 1.0312,-7.21875 c 0.5662,-3.97664 1.6118,-9.41834 2.3438,-12.09375 0.7318,-2.67539 1.7794,-6.83661 2.3125,-9.25 0.7681,-3.47679 2.1855,-4.63197 6.8125,-5.5 1.2964,-0.24321 2.4154,-0.3506 3.375,-0.34375 z m -517.156301,17.6875 c 1.133,-0.009 3.4886,1.77853 8.125001,5.9375 l 8.5625,7.6875 -1.875,6.46875 c -1.9278,6.72078 -1.3712,40.68049 1.6875,103.78125 0.8213,16.94422 2.2662,49.26244 3.1875,71.8125 0.9213,22.55005 2.09,41.65376 2.5938,42.46875 0.5037,0.81499 -0.5314,2.25098 -2.2813,3.1875 -7.7673,4.1569 -54.312301,-0.52153 -58.781201,-5.90625 -1.0503,-1.26543 -1.874,-5.71772 -1.8438,-9.90625 0.0329,-4.57065 -0.9538,-8.76307 -2.4375,-10.46875 -2.104,-2.41883 -2.166,-3.85741 -0.4375,-9.71875 4.2385,-14.37225 16.2475,-28.63686 33.0313,-39.25 5.1789,-3.27486 9.8214,-7.00158 10.3125,-8.28125 2.1445,-5.58849 -1.8859,-11.88106 -17.2813,-26.875 l -16.0625,-15.625 1.6875,-6.25 c 0.9315,-3.44293 3.8152,-13.86061 6.4063,-23.15625 2.591,-9.29563 4.7187,-18.80268 4.7187,-21.125 0,-6.17575 4.2813,-11.294 12.3438,-14.75 7.9246,-3.39688 8.8536,-6.42043 4.5625,-14.71875 -2.2918,-4.43189 -2.2765,-6.17842 -0.0313,-18.15625 1.3666,-7.29083 2.6863,-14.51803 2.9375,-16.0625 0.1126,-0.69191 0.36,-1.08951 0.875,-1.09375 z m 534.468801,4.9375 c 0.1089,-0.003 0.225,0.0376 0.3125,0.125 1.3802,1.38017 -2.7611,211.4399 -4.2813,217.1875 -1.7325,6.5506 -8.4977,13.12945 -17.3125,16.8125 -3.1225,1.30468 -7.08,2.37502 -8.8125,2.375 -3.0761,0 -3.133,-1.2291 -2.0625,-51.5 0.933,-43.81727 1.5735,-53.27447 4.3125,-63.625 4.9332,-18.642 7.1077,-27.51036 9.3438,-38.125 1.1271,-5.3508 2.6048,-11.91833 3.3125,-14.59375 0.7076,-2.67541 2.496,-11.77787 3.9687,-20.25 1.4727,-8.47211 3.3803,-18.4796 4.2188,-22.21875 0.8385,-3.73916 1.5312,-9.04183 1.5312,-11.8125 0,-4.53918 3.8345,-14.32514 5.4688,-14.375 z m -13.2188,5.4375 -0.9062,4.875 c -0.5022,2.67541 -1.3743,8.14314 -1.9375,12.15625 -1.8456,13.14891 -13.2132,68.0881 -14.3125,69.1875 -0.3478,0.34781 -1.0719,-1.60951 -1.625,-4.375 -0.5532,-2.76547 -1.7368,-4.58015 -2.625,-4.03125 -0.8882,0.5489 -2.2995,3.33306 -3.125,6.1875 -1.9855,6.86575 -2.2012,-27.22246 -0.2813,-43.78125 1.1812,-10.18754 2.2744,-13.00167 8.6563,-21.90625 4.0243,-5.61513 9.3198,-12.02049 11.75,-14.25 l 4.4062,-4.0625 z m 94.5313,195.9375 c 1.4343,-0.11051 2.4135,0.97583 3,3.3125 0.5457,2.17391 1.4155,5.046 1.9375,6.40625 0.6279,1.63617 -0.6466,3.30133 -3.75,4.90625 -7.766,4.01588 -34.1993,12.36314 -52.3125,16.53125 -19.5305,4.49422 -25.9376,4.93341 -25.9375,1.75 0,-1.21321 0.4524,-5.47426 1,-9.46875 0.8972,-6.54566 1.3514,-7.18684 4.7812,-6.53125 3.5459,0.67788 22.8467,-2.86127 33.9375,-6.21875 2.6754,-0.80991 11.4426,-3.32811 19.4688,-5.625 8.0262,-2.2969 15.7928,-4.5494 17.25,-4.96875 0.2237,-0.0644 0.42,-0.078 0.625,-0.0937 z m -579.125,1.28125 c 0.0336,-0.0149 0.0546,-0.005 0.0937,0.0312 0.6257,0.57628 3.6994,10.04533 6.8438,21.0625 3.1444,11.01714 6.1231,21.31432 6.5937,22.875 0.6082,2.0163 -0.0628,2.84376 -2.2812,2.84375 -5.7656,0 -8.8925,-3.83768 -9.3125,-11.4375 -0.2191,-3.96327 -0.9756,-13.78629 -1.6875,-21.8125 -0.6675,-7.52457 -0.7553,-13.33828 -0.25,-13.5625 z m 491.5937,35.15625 c 0.4836,-0.0698 0.75,-0.015 0.75,0.1875 0,2.59888 -8.354,11.51772 -13.0937,13.96875 -5.4868,2.83727 -13.8278,3.10451 -15.4375,0.5 -1.2777,-2.06746 3.5086,-6.25 7.1562,-6.25 1.2799,0 6.6055,-2.18189 11.8438,-4.84375 3.9286,-1.99639 7.3303,-3.35319 8.7812,-3.5625 z m -469.5937,38.53125 c 0.3931,0.0331 0.7874,0.89263 1.375,2.3125 2.6088,6.30458 8.1384,21.48658 9.2812,25.53125 0.5669,2.00656 0.7831,3.62914 0.5,3.59375 -0.283,-0.0354 -4.0332,-3.31424 -8.3437,-7.28125 l -7.8438,-7.21875 2.375,-9.34375 c 1.3831,-5.45427 2.0011,-7.64898 2.6563,-7.59375 z m 26.9375,40.6875 c 0.6146,0.20752 3.4947,4.54121 7.2812,11.0625 22.2124,38.25529 43.929,63.81097 74.5313,87.6875 17.4901,13.64613 30.8124,26.65984 30.8125,30.125 0,6.30021 -14.6752,1.30324 -35.2188,-12 -16.3519,-10.58878 -24.2813,-19.51606 -38.7812,-43.5625 -7.1991,-11.93891 -16.1678,-26.67552 -19.9063,-32.75 -6.5735,-10.68066 -16.4158,-31.71457 -18.75,-40.03125 -0.1173,-0.41803 -0.1106,-0.57914 0.0313,-0.53125 z m -41.5625,71.0625 3.0625,7.3125 c 17.9679,42.91645 40.3585,78.99157 57.5312,92.6875 7.0659,5.63531 52.0446,28.88835 55.9063,28.90625 1.6125,0.007 22.9954,8.78502 29.0312,11.90625 2.6509,1.37081 5.7785,3.63474 6.9375,5.03125 3.044,3.66774 0.6952,3.14298 -24.2187,-5.15625 -19.2101,-6.39915 -63.92,-25.25586 -93.6563,-39.53125 -10.9197,-5.24218 -20.8335,-9.53127 -22.0312,-9.53125 -1.1977,0 -3.5369,-4.05172 -5.2188,-9 -3.0521,-8.97935 -3.0675,-9.02683 0.5313,-19.0625 5.0007,-13.94506 4.6718,-22.80567 -1.3125,-35.59375 -2.7032,-5.77656 -5.2629,-14.41649 -5.7188,-19.21875 l -0.8437,-8.75 z m 10.4375,99.71875 c 0.3962,0 10.1016,4.58814 21.5625,10.1875 11.4608,5.5994 26.3115,12.85939 33,16.125 14.0549,6.86223 13.8232,6.95002 -5.6875,2.125 -21.9695,-5.43309 -35.4196,-7.69884 -42.375,-7.09375 l -6.25,0.5625 -0.5,-10.96875 c -0.2637,-6.01941 -0.1464,-10.93752 0.25,-10.9375 z" id="path1951" style="fill:#000000;fill-opacity:0.07106598" />
        <path d="m 281.001,133.18694 c -0.34017,-0.016 -0.69169,0.008 -1.0625,0.0312 -0.0221,-4.6e-4 -0.0401,1e-4 -0.0625,0 -0.28515,-0.001 -0.61983,0.0597 -0.96875,0.125 -0.039,0.007 -0.085,-0.008 -0.125,0 -4.45574,0.70527 -11.09092,3.90425 -22.3125,10.5 -21.0932,12.39798 -87.2462,35.79663 -119.4375,42.25 -18.6022,3.72917 -30.51972,8.60523 -40.343755,16.5 -7.4948,6.02299 -18.8148,22.48029 -23.8125,34.625 -5.1279,12.46116 -11.78127,35.5867 -11.78125,40.90626 0,2.94354 -2.12254,7.48876 -5.53125,11.90625 -5.7681,7.47527 -9.04711,16.6098 -9.0625,25.21875 -0.005,2.78914 -1.02563,5.92673 -2.28125,6.96875 -4.9518,4.10968 -7.63987,13.3156 -8.3125,28.46875 -0.5407,12.17976 -2.01915,19.35756 -7.15625,35.21875 -14.4371,44.57567 -24.4462499,83.18018 -26.8437499,103.4375 -0.34124,2.88303 -0.87772,10.43403 -1.34375004,18.8125 -0.0205,0.36851 -0.04224,0.69091 -0.0625,1.0625 -0.24278,3.66873 -0.47317,7.3134 -0.59375,10.65625 -0.13923,3.85994 -0.20692,6.87506 -0.25,9.4375 -0.09806,5.83186 0.08604,8.81215 0.75,10.53125 0.01088,0.0384 0.0201,0.0872 0.03125,0.125 1.06539004,3.61033 3.35320004,4.47923 7.65625004,5.375 2.8366999,0.59055 9.1575899,2.76148 14.0624999,4.8125 9.1093,3.80905 25.87518,9.02625 38.9375,12.15625 4.0131,0.96162 18.58323,2.17455 32.40625,2.6875 23.498305,0.87201 25.416915,1.17683 29.250005,4.75 2.2548,2.10189 6.5322,4.68417 9.5,5.71875 1.59406,0.55569 2.71079,0.94678 3.46875,1.4375 0.0114,0.007 0.02,0.0238 0.0312,0.0312 0.45885,0.3546 0.80701,0.78996 1.09375,1.28125 0.42655,1.08196 0.20869,2.69399 -0.25,5.5625 -0.5665,3.54282 -2.54993,10.5618 -4.40625,15.59375 -1.8563,5.03197 -4.04893,13.52419 -4.90625,18.875 -1.7102,10.67323 -0.59623,32.30217 2.15625,41.53125 1.4455,4.84651 1.18696,7.39656 -1.46875,14.59375 -8.5014,23.03895 -8.12259,38.70523 1.375,58.78125 5.5706,11.77508 5.80808,16.03301 1.46875,26.15625 -3.6573,8.5321 -4.25122,21.94915 -1.21875,27.28125 1.374,2.41586 2.32572,16.4117 3,44.0625 0.8343,34.21437 1.53609,42.91045 4.625,55.71875 2.92461,12.12718 4.01159,17.32814 9.46875,19.375 0.032,0.012 0.0614,0.0195 0.0937,0.0312 1.54353,0.76653 3.39882,1.07269 5.6875,1.03125 4.27298,0.29087 10.0686,0.0326 18.34375,-0.28125 29.3998,-1.1151 44.98167,0.80951 74.6875,9.1875 22.4504,6.33171 32.8885,8.54034 52.3125,11.15625 1.83434,0.24703 5.20874,0.4972 9.40625,0.71875 1.02312,0.22203 1.74697,0.43446 1.87505,0.5625 0.5256,0.52558 11.3976,0.54937 25.4375,0.3125 0.1258,0.002 0.249,-0.002 0.375,0 2.4978,0.0376 5.0127,0.0452 7.5,0.0625 57.9232,0.40221 82.9077,-4.46377 137.8125,-26.875 42.7391,-17.44546 57.4905,-21.86542 82.1563,-24.625 7.1616,-0.80126 13.7532,-2.15951 14.625,-3.03125 7.1605,-7.16063 5.3134,-71.3566 -2.5938,-90.28125 -2.2618,-5.41319 -2.1328,-6.35385 2.2188,-16.90625 8.1342,-19.72577 10.4202,-29.3875 10.4062,-43.96875 -0.0107,-11.17817 -0.7066,-15.14798 -3.7187,-20.96875 -4.0953,-7.9133 -4.0554,-9.75704 0.875,-34.96875 2.1603,-11.04669 2.8915,-23.16177 2.9687,-49.78125 l 0.0938,-35.0625 1.5625,-0.0937 8.375,0 c 11.8335,2e-5 20.4306,-3.24613 28.1562,-10.65625 5.0373,-4.83162 7.7047,-5.83962 23.7813,-8.875 32.0344,-6.04833 70.6707,-19.15673 77.25,-26.21875 0.8018,-0.86064 1.3857,-1.5699 1.7812,-2.40625 0.01,-0.0204 0.0218,-0.0419 0.0313,-0.0625 0.6354,-0.95905 0.9375,-1.91462 0.9375,-2.875 0,-0.77242 -0.3486,-2.65029 -0.9063,-5.15625 -0.4342,-2.72344 -1.1289,-6.26095 -2.125,-11.25 -2.9627,-14.84012 -25.2062,-88.22883 -36.8437,-121.59375 -4.9428,-14.17042 -5.524,-17.46823 -4.625,-26.03125 1.2433,-11.84276 -0.9311,-20.73068 -7.125,-29.28125 -3.5741,-4.93384 -4.8283,-8.88576 -5.6563,-17.6875 -1.9683,-20.9221 -14.4301,-69.82151 -21.1875,-83.12501 -12.3481,-24.30998 -30.8011,-35.50382 -94.7187,-57.40625 -45.8164,-15.69971 -64.2657,-23.30392 -76.8751,-31.75 -6.4894,-4.34673 -13.1092,-8.40782 -14.7187,-9 -1.6743,-0.61602 -6.8729,0.57907 -12.1563,2.78125 -18.2134,7.59148 -48.836,12.21041 -81.4062,12.28125 -34.8061,0.0757 -53.8192,-4.2546 -87.06255,-19.8125 -0.80968,-0.37893 -1.69825,-0.60816 -2.71875,-0.65625 z m -3.125,14.0625 c 0.0118,0.005 0.019,-0.006 0.0312,0 0.0104,0.005 0.0205,0.0258 0.0312,0.0312 l 7.75,13.3125 c 9.7922,16.8529 32.9512,40.34813 47.0313,47.75 5.3677,2.82179 15.21,6.39038 21.875,7.90625 10.4882,2.38549 13.5234,2.46719 22.6562,0.6875 12.8579,-2.50558 27.2875,-8.80112 39.9688,-17.46875 9.3916,-6.41909 33.2112,-29.97752 41.2812,-40.8125 l 4.1875,-5.59375 7.5313,4.78125 c 4.6746,2.95343 7.5607,5.96598 7.5625,7.875 0.004,4.41173 -9.7805,21.19274 -18.9688,32.53125 -17.2481,21.28448 -39.6575,34.77996 -67.375,40.5625 -49.6216,10.35225 -102.29972,-16.55932 -127.1875,-64.96875 -7.1455,-13.89865 -6.92811,-14.78894 5.375,-21.875 l 8.25,-4.71875 z m 12.875,6.8125 c 1.39586,0.0836 6.31927,1.54716 11.90625,3.5625 20.16335,7.27332 29.33895,9.26464 53.34375,9.6875 9.3196,0.97156 15.2852,0.97159 26.7188,0 26.3386,-0.47071 43.492,-2.56986 59.375,-7.125 3.0184,-0.86567 5.7745,-1.28786 6.125,-0.9375 0.3504,0.35037 -3.9829,5.50535 -9.625,11.4375 -10.3964,10.93093 -11.0512,11.25154 -29.7188,15.5 -9.8646,2.245 -50.3527,3.20404 -63.9062,1.5 -6.6106,-0.83114 -17.9483,-3.34485 -25.2188,-5.5625 -13.1833,-4.02115 -13.26114,-4.03952 -21.65625,-15.65625 -4.6299,-6.40659 -8.09217,-11.97037 -7.71875,-12.34375 0.0467,-0.0467 0.17559,-0.0744 0.375,-0.0625 z m -40.09375,9.46875 c 0.0122,0.001 0.0189,0.0295 0.0312,0.0312 l 6.90625,13.25 c 5.5204,10.61086 10.51915,16.93356 24.78125,31.28125 14.559,14.64638 20.27488,19.19618 30.8438,24.5625 32.1166,16.30708 62.1474,18.7532 95.1562,7.75 29.9899,-9.99689 55.9895,-33.02766 71.9063,-63.71875 3.2119,-6.1931 5.198,-8.42925 7.0625,-7.84375 1.4306,0.44925 9.5591,3.531 18.0312,6.8125 8.4721,3.28151 30.9933,11.33028 50.0626,17.90625 63.4645,21.88536 78.4511,32.33901 87.7812,61.21876 l 3.1563,9.71875 c 0.0206,0.33973 0.0332,0.69012 0.0312,1 -0.001,0.23314 -0.0562,0.51087 -0.125,0.84375 l -7.1562,12.8125 c -4.1807,7.4482 -9.3286,15.6397 -11.4375,18.21875 -3.7321,4.56398 -3.8496,4.59801 -3.9063,0.96875 -0.0654,-4.18522 -4.4047,-13.49212 -7.1562,-15.3125 -2.8448,-1.88213 -11.5166,-1.42102 -13.6563,0.71875 -4.0756,4.07551 -2.219,6.24691 4.4063,5.1875 5.3171,-0.85023 6.602,-0.47472 8.0937,2.3125 2.6659,4.98117 2.2936,16.5 -0.5312,16.5 -1.2667,0 -6.6555,4.80041 -11.9688,10.6875 -5.3133,5.88708 -10.0528,10.08644 -10.5312,9.3125 -0.8532,-1.38061 0.3995,-8.74403 4.5,-26.5 1.1327,-4.90492 1.7037,-9.4918 1.2812,-10.21875 -1.8319,-3.15242 -6.3941,4.42849 -8.3125,13.8125 -4.8972,23.95615 -5.641,28.63619 -7.6875,48.0625 -0.905,8.59149 -3.6169,74.19808 -5.5,133.1875 -0.8967,28.09176 -2.182,55.8283 -2.875,61.625 -0.721,6.03126 -7.2439,28.21389 -15.25,51.875 -7.6948,22.74095 -16.347,48.64447 -19.2187,57.5625 -12.6081,39.15181 -34.631,93.13822 -45.4376,111.375 -3.5274,5.95263 -6.4062,11.26881 -6.4062,11.84375 0,0.57498 1.5528,0.81621 3.4687,0.53125 7.7019,-1.14561 30.0151,-51.14476 54.8438,-122.9375 2.0047,-5.79671 6.0842,-16.73217 9.0625,-24.3125 2.9783,-7.58032 7.7315,-20.51439 10.5625,-28.75 2.8311,-8.23564 5.7777,-14.57874 6.5625,-14.09375 2.0007,1.23656 1.7769,45.50866 -0.3125,62.21875 -4.6557,37.23541 -7.7274,48.01054 -21.1875,74.3125 -13.078,25.55526 -28.2012,52.01205 -46.4063,81.15625 -7.1516,11.44894 -9.9478,17.30211 -8.8125,18.4375 0.9143,0.91423 2.4193,1.1964 3.3438,0.625 4.2332,-2.61621 43.1069,-68.98898 59.8438,-102.15625 9.5706,-18.96622 10.7928,-20.65677 12.7812,-17.9375 3.6565,5.00055 3.4348,20.67474 -0.4687,34.8125 -4.1115,14.89066 -13.6626,35.97737 -20.5625,45.40625 -3.5894,4.90491 -14.4702,16.76264 -24.1875,26.34375 -16.9195,16.68199 -21.4095,24.16785 -10.7501,17.875 5.2199,-3.08158 29.3132,-27.41477 38.9688,-39.34375 l 5.9063,-7.3125 1.8125,4.625 c 3.2504,8.39212 5.7718,30.69441 6.4062,48.34375 -0.001,0.14636 0.001,0.29115 0,0.4375 -0.0125,1.34847 -0.0583,2.68799 -0.0937,4.03125 l -0.4063,15.53125 0,0.0312 c -0.3038,1.88674 -0.7177,3.18648 -1.25,3.71875 -1.0701,1.07017 -4.3945,1.9375 -7.375,1.9375 -15.1939,0 -45.3064,9.09333 -84.7188,25.5625 -36.1846,15.12039 -64.9061,22.84139 -97.5625,26.28125 -14.1446,1.4899 -46.8602,1.81595 -59.7187,0.59375 -20.69205,-1.96677 -47.52492,-7.5232 -73.2188,-15.15625 -20.7048,-6.15092 -48.93059,-9.92986 -71.625,-9.59375 -9.6563,0.14299 -18.16644,-0.37855 -18.90625,-1.15625 -3.1249,-3.28527 -6.46005,-34.08674 -7.09375,-65.53125 -0.5416,-26.87133 -1.24122,-34.91322 -3.625,-41.625 -1.39576,-3.92991 -2.13391,-6.0542 -2.125,-8.28125 0.0122,-0.31502 0.0391,-0.64823 0.0625,-0.96875 0.005,-0.0727 0.0254,-0.14572 0.0312,-0.21875 0.24947,-2.137 1.13078,-4.69269 2.6875,-9.125 5.0323,-14.32771 4.64671,-22.83689 -1.625,-36.34375 -7.0711,-15.22826 -7.24388,-28.24093 -0.625,-48.03125 l 4.71875,-14.15625 -2.6875,-11.21875 c -3.9775,-16.47937 -3.52112,-32.85914 1.34375,-48.1875 2.228,-7.01993 4.48455,-15.14861 5.03125,-18.0625 1.1527,-6.14433 3.13279,-6.89505 4.375,-1.65625 2.4108,10.1677 21.09052,61.02813 28.1875,76.75 14.0706,31.17026 39.55362,75.10245 56.84375,97.96875 7.2089,9.53384 21.35019,24.31248 23.25,24.3125 3.4956,0 0.95047,-5.30053 -6.78125,-14.09375 -4.5544,-5.17974 -11.3984,-13.77421 -15.1875,-19.125 -16.8999,-23.8659 -50.42212,-87.91923 -63.65625,-121.625 -5.4296,-13.82841 -15.83781,-45.60911 -25.5,-77.8125 -2.4082,-8.02622 -5.01542,-16.42674 -5.78125,-18.65625 -5.6478,-16.44251 -13.97745,-66.70994 -12.34375,-74.5 0.4797,-2.28769 -0.14407,-10.3572 -1.375,-17.9375 -5.9311,-36.52613 -7.02073,-75.9454 -3.09375,-110.25 4.3548,-38.04094 4.49093,-45.26613 1.125,-54.28125 -2.3077,-6.18068 -4.72138,-9.19293 -10.28125,-12.875 -3.9928,-2.64422 -7.81804,-5.7711 -8.53125,-6.9375 -1.9064,-3.11797 -8.89656,-2.56102 -10.71875,0.84375 -0.866605,1.61922 -1.821225,7.63686 -2.125005,13.375 -0.3038,5.73814 -1.25752,10.37931 -2.125,10.34375 -2.4484,-0.10037 -14.15625,-20.38291 -14.15625,-24.53125 0,-5.67954 6.79533,-21.38134 13.6875,-31.65626 9.834205,-14.66068 18.908785,-20.36824 39.437505,-24.8125 29.5376,-6.39459 82.79203,-23.32446 106.53125,-33.875 l 9.25,-4.125 z m 72.56255,27.875 c 0.6575,-0.0313 1.9316,0.17847 3.9375,0.53125 3.0425,0.53511 8.0662,1.7961 11.1875,2.78125 8.2687,2.60977 59.2421,2.39542 67,-0.28125 3.404,-1.17447 6.5751,-1.76865 7.0312,-1.3125 1.1891,1.18903 -12.5654,8.97746 -22.5625,12.78125 -9.8212,3.73682 -28.3637,5.13822 -37.5,2.84375 -7.8275,-1.96573 -24.1804,-10.57044 -27.9062,-14.6875 -1.683,-1.85962 -2.2834,-2.60403 -1.1875,-2.65625 z m -214.9063,74.53126 c 4.04653,0.1535 12.41396,9.58976 14.375,16.59375 1.8847,6.73147 1.22192,25.0403 -1.125,31.15625 -0.4537,1.1823 -1.30159,2.14195 -1.875,2.125 -2.9635,-0.0876 -16.6105,-10.19272 -21.062505,-15.59375 -6.284,-7.62353 -6.63973,-10.7748 -1.0625,-9.375 4.844005,1.21577 5.403935,0.10248 6.968755,-13.90625 0.6313,-5.65179 2.00026,-10.56411 3.03125,-10.90625 0.22813,-0.0757 0.48023,-0.10398 0.75,-0.0937 z m 540.2501,12 c 0.583,0.0342 0.9578,0.90999 1.5,2.34375 3.0288,8.00967 7.5628,31.89811 8.6562,45.625 1.0173,12.77273 1.5451,14.49993 5.7188,18.21875 5.7409,5.11512 6.9832,9.86986 5.8437,22.4375 -0.8102,8.93566 -0.0444,12.32374 7.9688,35.90625 7.6817,22.60689 31.0186,98.37703 31.375,101.8125 -0.0125,0.0945 -0.004,0.18717 -0.0313,0.28125 -1.3281,1.46188 -22.7644,8.39664 -35.5937,11.46875 -5.7968,1.38807 -13.0974,3.2037 -16.2188,4.03125 -3.1213,0.82752 -9.1389,2.37349 -13.375,3.4375 -7.9133,1.98766 -10.7555,6.37501 -4.125,6.375 4.682,0 33.5158,-7.1052 53.7813,-13.25 8.8021,-2.66893 16.5243,-4.24019 17.1875,-3.5 0.663,0.74018 2.0759,3.90994 3.125,7.03125 1.703,5.0672 1.5369,5.95397 -1.4375,8.375 -4.527,3.68452 -34.2011,13.40966 -55.9688,18.34375 -9.8098,2.22359 -19.8759,4.05443 -22.375,4.0625 l -4.5625,0.0312 0.875,-13.375 c 2.0487,-31.72644 3.0709,-70.73526 4,-153.65625 l 1,-87.9375 c 0.166,-0.39228 0.3543,-0.79993 0.5625,-1.25 l 5.75,-8.8125 c 3.8167,-5.80984 5.3721,-8.05704 6.3438,-8 z m -573.281355,2.25 c 0.6704,0 3.02202,3.45696 5.25,7.6875 4.0509,7.69193 21.473365,25.57001 33.531255,34.4375 l 6.375,4.71875 -1.40625,13.46875 c -1.5746,14.86923 -0.25538,68.15574 2.15625,87.21875 0.8462,6.68851 2.18121,21.65657 3,33.25 0.8188,11.59341 2.25234,25.4617 3.15625,30.8125 1.9226,11.38063 10.17924,43.64355 14.96875,58.46875 1.8358,5.68226 2.87978,11.08195 2.3125,12 -2.1781,3.52414 -8.04763,1.44489 -13.96875,-4.96875 -6.5768,-7.12396 -7.43911,-7.33592 -23.375,-5.46875 -0.83862,0.0983 -1.72077,0.18026 -2.59375,0.25 l -7.218755,-0.0625 c -3.69376,-0.0411 -6.80271,-0.10041 -9.65625,-0.15625 -19.17719,-1.66914 -42.68862,-7.80548 -66.46875,-17.625 -7.9903,-3.29941 -9.79665,-4.78146 -10.21875,-8.25 -0.3022,-2.48333 0.40796,-4.55953 1.71875,-5.0625 1.226,-0.47047 9.75657,1.7622 18.96875,4.96875 11.9306,4.15279 17.26011,5.33359 18.5,4.09375 3.1568,-3.15678 -4.13385,-7.99662 -20.65625,-13.75 -8.14513,-2.83631 -15.03648,-5.36348 -16.1875,-5.9375 -0.12087,-0.19076 -0.22603,-0.39135 -0.3125,-0.59375 -0.04316,-4.10167 5.58053,-34.70054 9.15625,-49.46875 4.4647,-18.44024 17.32585,-62.25577 21.03125,-71.65625 3.5801,-9.08284 7.99267,-33.2627 8,-43.8125 0.0039,-5.6891 1.02204,-8.76754 4.03125,-12.34375 5.3455,-6.35276 7.34373,-12.03232 7.34375,-20.875 0,-6.04313 0.98302,-8.50906 5.65625,-13.96875 4.015,-4.69053 5.6875,-8.19156 5.6875,-12 0,-2.96077 0.54834,-5.375 1.21875,-5.375 z M 629.0323,309.4057 c 0.1122,0.0128 0.202,0.0458 0.2813,0.125 1.1953,1.19536 -1.9671,207.65801 -3.3125,216.28125 -1.4954,9.58359 -4.961,14.39291 -14.625,20.25 -6.6889,4.05377 -11.156,5.45521 -19.5,6.125 l -10.8125,0.875 1.0937,-6.3125 c 2.2268,-12.80531 4.2223,-72.6345 4.125,-123.875 -0.0952,-50.15233 1.3582,-72.51833 5.1875,-79.75 2.9563,-5.5831 21.0276,-27.28126 22.7188,-27.28125 1.1692,0 1.3913,2.85716 0.6875,8.53125 -3.0993,24.98115 -15.0676,82.20464 -19.4063,92.8125 -1.0942,2.67541 -3.3354,10.15432 -5,16.625 -2.4346,9.46382 -2.6454,12.15834 -1,13.78125 1.6339,1.61148 2.4605,1.47145 4.125,-0.78125 1.7139,-2.31967 8.3569,-27.46362 17.2188,-65.28125 2.5387,-10.83389 5.9915,-30.04451 8.0312,-44.59375 1.0627,-7.58032 2.2307,-15.24766 2.5938,-17.03125 0.7665,-3.7659 5.9113,-10.69245 7.5937,-10.5 z m -6.8437,238.3125 c 5.9216,0 -5.5531,15.26733 -14.1875,18.875 -5.1158,2.1375 -10.9488,2.54164 -17.5,1.15625 -1.7836,-0.37716 -4.8997,-1.04058 -6.9063,-1.46875 -6.301,-1.34453 -4.4236,-5.59375 2.4688,-5.59375 6.7636,0 20.2063,-4.47348 28.9375,-9.625 3.1224,-1.84225 6.3466,-3.34374 7.1875,-3.34375 z m -430.9376,39.125 c -3.48699,-0.18582 -2.27784,4.31582 4.59375,18.0625 37.4793,74.97695 107.39279,156.07925 174.12505,201.96875 11.2922,7.76527 20.5325,9.31372 15.7812,2.65625 -0.6552,-0.91803 -8.6868,-6.97768 -17.8437,-13.46875 -21.96,-15.56695 -33.2418,-25.01028 -54.4688,-45.59375 -41.0491,-39.80479 -82.44231,-94.6423 -108.3125,-143.53125 -6.2799,-11.86757 -11.36167,-19.66643 -13.09375,-20 -0.27391,-0.0528 -0.54878,-0.0814 -0.78125,-0.0937 z m -40.96875,208.65625 c -1.21636,0.099 -1.62499,0.79869 -1.625,2 0,1.83398 25.54427,14.78193 52.40625,26.5625 10.8527,4.75957 24.85115,11.08714 31.09375,14.03125 6.2426,2.94415 19.01111,8.0615 28.375,11.40625 17.3122,6.18396 26.74998,7.33664 26.75,3.25 0,-0.43127 -0.78904,-1.04988 -2.125,-1.8125 -0.0216,-0.0185 -0.0403,-0.0442 -0.0625,-0.0625 -0.58459,-0.48122 -1.37476,-0.89245 -2.1875,-1.125 -0.0323,-0.009 -0.0614,-0.0226 -0.0937,-0.0312 -3.45881,-1.61394 -8.80093,-3.64675 -15.8125,-6 -23.1118,-7.75689 -61.20421,-23.64756 -93.4375,-39 -14.10977,-6.72041 -20.60525,-9.4365 -23.28125,-9.21875 z" id="path1949" style="fill:#000000;fill-opacity:1" />
    </g>
</svg>
